<?xml version="1.0" encoding="utf-8"?>
<!-- Generator: Adobe Illustrator 24.2.1, SVG Export Plug-In . SVG Version: 6.00 Build 0)  -->
<svg version="1.1" id="Layer_1" xmlns="http://www.w3.org/2000/svg" xmlns:xlink="http://www.w3.org/1999/xlink" x="0px" y="0px"
	 viewBox="0 0 512 512" style="enable-background:new 0 0 512 512;" xml:space="preserve">
<path d="M405.3,298.7c59.7,0,106.7,46.9,106.7,106.7S465.1,512,405.3,512s-106.7-46.9-106.7-106.7S345.6,298.7,405.3,298.7z
	 M352,424.5h106.7c10.7,0,19.2-8.5,19.2-19.2c0-10.7-8.5-19.2-19.2-19.2H352c-10.7,0-19.2,8.5-19.2,19.2
	C332.8,416,341.3,424.5,352,424.5z M262.4,362.7H192v106.7h78.9c8.5,14.9,17.1,29.9,29.9,42.7H106.7C46.9,512,0,465.1,0,405.3V106.7
	C0,46.9,46.9,0,106.7,0h298.7C465.1,0,512,46.9,512,106.7v59.7c0,2.1,0,2.1,0,4.3c0,2.1,0,2.1,0,4.3v125.9
	c-12.8-12.8-25.6-23.5-42.7-29.9V192H362.7v70.4c-14.9,4.3-29.9,10.7-42.7,21.3V192H192v128h91.7
	C273.1,332.8,266.7,347.7,262.4,362.7z M362.7,149.3h106.7v-42.7c0-36.3-27.7-64-64-64h-42.7V149.3z M320,149.3V42.7H192v106.7H320z
	 M149.3,42.7h-42.7c-36.3,0-64,27.7-64,64v42.7h106.7V42.7z M42.7,192v128h106.7V192H42.7z M42.7,362.7v42.7c0,36.3,27.7,64,64,64
	h42.7V362.7H42.7z"/>
</svg>
